# xmcd
#
# Track frame offsets:
#	150
#	27522
#	50037
#	82887
#	115985
#	141382
#	164590
#	197547
#	217115
#	241755
#
# Disc length: 3435 seconds
#
# Revision: 2
# Processed by: cddbd v1.5.2PL0 Copyright (c) Steve Scherf et al.
# Submitted via: EZCDAudioConverter 8.0.2.1
#
DISCID=900d690a
DTITLE=Tuấn Vũ - Hình Bóng Quê Nhà
DYEAR=1995
DGENRE=Miscellaneous
TTITLE0=Người phu kéo mo cau
TTITLE1=Hai bàn tay trắng
TTITLE2=Hình bóng quê nhà
TTITLE3=Trên nhịp cầu tre
TTITLE4=Tình đẹp muôn thuở
TTITLE5=Thuognw tình nhân
TTITLE6=Xuân hồng trên má
TTITLE7=Dĩ vãng buồn
TTITLE8=Lối cũ em về
TTITLE9=Người giữ đàn cò
EXTD=
EXTT0=
EXTT1=
EXTT2=
EXTT3=
EXTT4=
EXTT5=
EXTT6=
EXTT7=
EXTT8=
EXTT9=
PLAYORDER=
